HIERARCHY
ROOT mixamorig:Hips
{
	OFFSET 0.000000 3.528733 0.000000
	CHANNELS 6 Xposition Yposition Zposition Xrotation Yrotation Zrotation
	JOINT mixamorig:Spine
	{
		OFFSET 0.000000 0.284700 -0.015200
		CHANNELS 3 Xrotation Yrotation Zrotation
		JOINT mixamorig:Spine1
		{
			OFFSET 0.000000 0.332125 -0.017771
			CHANNELS 3 Xrotation Yrotation Zrotation
			JOINT mixamorig:Spine2
			{
				OFFSET 0.000000 0.379557 -0.020309
				CHANNELS 3 Xrotation Yrotation Zrotation
				JOINT mixamorig:Neck
				{
					OFFSET 0.000000 0.426989 -0.022847
					CHANNELS 3 Xrotation Yrotation Zrotation
					JOINT mixamorig:Head
					{
						OFFSET 0.000000 0.288600 0.098000
						CHANNELS 3 Xrotation Yrotation Zrotation
						JOINT mixamorig:HeadTop_End
						{
							OFFSET 0.000000 0.712700 0.242000
							CHANNELS 3 Xrotation Yrotation Zrotation
							End Site
							{
								OFFSET 0.000000 0.752666 0.000000
							}
						}
					}
				}
				JOINT mixamorig:LeftShoulder
				{
					OFFSET 0.202600 0.346984 -0.022672
					CHANNELS 3 Xrotation Yrotation Zrotation
					JOINT mixamorig:LeftArm
					{
						OFFSET 0.427337 -0.109325 0.000307
						CHANNELS 3 Xrotation Yrotation Zrotation
						JOINT mixamorig:LeftForeArm
						{
							OFFSET 0.849600 0.000000 0.000000
							CHANNELS 3 Xrotation Yrotation Zrotation
							JOINT mixamorig:LeftHand
							{
								OFFSET 0.753900 0.000000 0.000000
								CHANNELS 3 Xrotation Yrotation Zrotation
								JOINT mixamorig:LeftHandThumb1
								{
									OFFSET 0.136012 -0.086473 0.045448
									CHANNELS 3 Xrotation Yrotation Zrotation
									JOINT mixamorig:LeftHandThumb2
									{
										OFFSET 0.103772 -0.059913 0.059913
										CHANNELS 3 Xrotation Yrotation Zrotation
										JOINT mixamorig:LeftHandThumb3
										{
											OFFSET 0.095779 -0.055298 0.055298
											CHANNELS 3 Xrotation Yrotation Zrotation
											JOINT mixamorig:LeftHandThumb4
											{
												OFFSET 0.073275 -0.042305 0.042305
												CHANNELS 3 Xrotation Yrotation Zrotation
												End Site
												{
													OFFSET 0.065698 -0.038445 0.056164
												}
											}
										}
									}
								}
								JOINT mixamorig:LeftHandIndex1
								{
									OFFSET 0.449965 -0.020370 0.085418
									CHANNELS 3 Xrotation Yrotation Zrotation
									JOINT mixamorig:LeftHandIndex2
									{
										OFFSET 0.102424 0.000000 -0.000000
										CHANNELS 3 Xrotation Yrotation Zrotation
										JOINT mixamorig:LeftHandIndex3
										{
											OFFSET 0.096306 0.000000 -0.000000
											CHANNELS 3 Xrotation Yrotation Zrotation
											JOINT mixamorig:LeftHandIndex4
											{
												OFFSET 0.078408 0.000000 -0.000000
												CHANNELS 3 Xrotation Yrotation Zrotation
												End Site
												{
													OFFSET 0.078400 -0.000010 -0.001100
												}
											}
										}
									}
								}
								JOINT mixamorig:LeftHandMiddle1
								{
									OFFSET 0.430485 0.000000 0.000000
									CHANNELS 3 Xrotation Yrotation Zrotation
									JOINT mixamorig:LeftHandMiddle2
									{
										OFFSET 0.112203 0.000000 0.000000
										CHANNELS 3 Xrotation Yrotation Zrotation
										JOINT mixamorig:LeftHandMiddle3
										{
											OFFSET 0.108209 0.000000 0.000000
											CHANNELS 3 Xrotation Yrotation Zrotation
											JOINT mixamorig:LeftHandMiddle4
											{
												OFFSET 0.087466 0.000000 0.000000
												CHANNELS 3 Xrotation Yrotation Zrotation
												End Site
												{
													OFFSET 0.087400 -0.000057 -0.003400
												}
											}
										}
									}
								}
								JOINT mixamorig:LeftHandRing1
								{
									OFFSET 0.364574 -0.002440 -0.092011
									CHANNELS 3 Xrotation Yrotation Zrotation
									JOINT mixamorig:LeftHandRing2
									{
										OFFSET 0.114832 0.000000 0.000000
										CHANNELS 3 Xrotation Yrotation Zrotation
										JOINT mixamorig:LeftHandRing3
										{
											OFFSET 0.104409 0.000000 0.000000
											CHANNELS 3 Xrotation Yrotation Zrotation
											JOINT mixamorig:LeftHandRing4
											{
												OFFSET 0.080424 0.000000 0.000000
												CHANNELS 3 Xrotation Yrotation Zrotation
												End Site
												{
													OFFSET 0.080200 -0.000053 -0.006000
												}
											}
										}
									}
								}
								JOINT mixamorig:LeftHandPinky1
								{
									OFFSET 0.312269 -0.016255 -0.171399
									CHANNELS 3 Xrotation Yrotation Zrotation
									JOINT mixamorig:LeftHandPinky2
									{
										OFFSET 0.087028 0.000000 0.000000
										CHANNELS 3 Xrotation Yrotation Zrotation
										JOINT mixamorig:LeftHandPinky3
										{
											OFFSET 0.073733 0.000000 0.000000
											CHANNELS 3 Xrotation Yrotation Zrotation
											JOINT mixamorig:LeftHandPinky4
											{
												OFFSET 0.056250 0.000000 0.000000
												CHANNELS 3 Xrotation Yrotation Zrotation
												End Site
												{
													OFFSET 0.056100 -0.000056 -0.004100
												}
											}
										}
									}
								}
							}
						}
					}
				}
				JOINT mixamorig:RightShoulder
				{
					OFFSET -0.202600 0.346968 -0.022971
					CHANNELS 3 Xrotation Yrotation Zrotation
					JOINT mixamorig:RightArm
					{
						OFFSET -0.427342 -0.109309 -0.000307
						CHANNELS 3 Xrotation Yrotation Zrotation
						JOINT mixamorig:RightForeArm
						{
							OFFSET -0.849600 0.000000 -0.000000
							CHANNELS 3 Xrotation Yrotation Zrotation
							JOINT mixamorig:RightHand
							{
								OFFSET -0.753900 0.000000 -0.000000
								CHANNELS 3 Xrotation Yrotation Zrotation
								JOINT mixamorig:RightHandThumb1
								{
									OFFSET -0.139217 -0.077736 0.046135
									CHANNELS 3 Xrotation Yrotation Zrotation
									JOINT mixamorig:RightHandThumb2
									{
										OFFSET -0.102889 -0.059403 0.059403
										CHANNELS 3 Xrotation Yrotation Zrotation
										JOINT mixamorig:RightHandThumb3
										{
											OFFSET -0.097122 -0.056073 0.056073
											CHANNELS 3 Xrotation Yrotation Zrotation
											JOINT mixamorig:RightHandThumb4
											{
												OFFSET -0.076714 -0.044291 0.044291
												CHANNELS 3 Xrotation Yrotation Zrotation
												End Site
												{
													OFFSET -0.072157 -0.042014 0.053259
												}
											}
										}
									}
								}
								JOINT mixamorig:RightHandIndex1
								{
									OFFSET -0.450325 -0.003448 0.076701
									CHANNELS 3 Xrotation Yrotation Zrotation
									JOINT mixamorig:RightHandIndex2
									{
										OFFSET -0.104343 0.000000 -0.000000
										CHANNELS 3 Xrotation Yrotation Zrotation
										JOINT mixamorig:RightHandIndex3
										{
											OFFSET -0.097003 0.000000 -0.000000
											CHANNELS 3 Xrotation Yrotation Zrotation
											JOINT mixamorig:RightHandIndex4
											{
												OFFSET -0.081630 0.000000 -0.000000
												CHANNELS 3 Xrotation Yrotation Zrotation
												End Site
												{
													OFFSET -0.081600 -0.000082 -0.002198
												}
											}
										}
									}
								}
								JOINT mixamorig:RightHandMiddle1
								{
									OFFSET -0.397234 0.000000 -0.000000
									CHANNELS 3 Xrotation Yrotation Zrotation
									JOINT mixamorig:RightHandMiddle2
									{
										OFFSET -0.115313 0.000000 -0.000000
										CHANNELS 3 Xrotation Yrotation Zrotation
										JOINT mixamorig:RightHandMiddle3
										{
											OFFSET -0.121324 0.000000 -0.000000
											CHANNELS 3 Xrotation Yrotation Zrotation
											JOINT mixamorig:RightHandMiddle4
											{
												OFFSET -0.103502 0.000000 0.000000
												CHANNELS 3 Xrotation Yrotation Zrotation
												End Site
												{
													OFFSET -0.103400 -0.000083 -0.004599
												}
											}
										}
									}
								}
								JOINT mixamorig:RightHandRing1
								{
									OFFSET -0.356229 0.006227 -0.097026
									CHANNELS 3 Xrotation Yrotation Zrotation
									JOINT mixamorig:RightHandRing2
									{
										OFFSET -0.116123 0.000000 0.000000
										CHANNELS 3 Xrotation Yrotation Zrotation
										JOINT mixamorig:RightHandRing3
										{
											OFFSET -0.105608 0.000000 0.000000
											CHANNELS 3 Xrotation Yrotation Zrotation
											JOINT mixamorig:RightHandRing4
											{
												OFFSET -0.089388 0.000000 0.000000
												CHANNELS 3 Xrotation Yrotation Zrotation
												End Site
												{
													OFFSET -0.089200 -0.000198 -0.005797
												}
											}
										}
									}
								}
								JOINT mixamorig:RightHandPinky1
								{
									OFFSET -0.319258 -0.005155 -0.189362
									CHANNELS 3 Xrotation Yrotation Zrotation
									JOINT mixamorig:RightHandPinky2
									{
										OFFSET -0.084919 0.000000 0.000000
										CHANNELS 3 Xrotation Yrotation Zrotation
										JOINT mixamorig:RightHandPinky3
										{
											OFFSET -0.068357 0.000000 0.000000
											CHANNELS 3 Xrotation Yrotation Zrotation
											JOINT mixamorig:RightHandPinky4
											{
												OFFSET -0.053427 0.000000 0.000000
												CHANNELS 3 Xrotation Yrotation Zrotation
												End Site
												{
													OFFSET -0.053400 -0.000117 -0.001696
												}
											}
										}
									}
								}
							}
						}
					}
				}
			}
		}
	}
	JOINT mixamorig:LeftUpLeg
	{
		OFFSET 0.302300 -0.158000 -0.006800
		CHANNELS 3 Xrotation Yrotation Zrotation
		JOINT mixamorig:LeftLeg
		{
			OFFSET -0.021195 -1.512800 -0.072827
			CHANNELS 3 Xrotation Yrotation Zrotation
			JOINT mixamorig:LeftFoot
			{
				OFFSET 0.021196 -1.499076 -0.232845
				CHANNELS 3 Xrotation Yrotation Zrotation
				JOINT mixamorig:LeftToeBase
				{
					OFFSET 0.176214 -0.335644 0.384848
					CHANNELS 3 Xrotation Yrotation Zrotation
					JOINT mixamorig:LeftToe_End
					{
						OFFSET 0.078950 -0.008059 0.195507
						CHANNELS 3 Xrotation Yrotation Zrotation
						End Site
						{
							OFFSET 0.078950 -0.008059 0.195507
						}
					}
				}
			}
		}
	}
	JOINT mixamorig:RightUpLeg
	{
		OFFSET -0.302300 -0.158000 -0.006600
		CHANNELS 3 Xrotation Yrotation Zrotation
		JOINT mixamorig:RightLeg
		{
			OFFSET 0.021196 -1.512831 -0.074247
			CHANNELS 3 Xrotation Yrotation Zrotation
			JOINT mixamorig:RightFoot
			{
				OFFSET -0.021196 -1.499093 -0.231430
				CHANNELS 3 Xrotation Yrotation Zrotation
				JOINT mixamorig:RightToeBase
				{
					OFFSET -0.176206 -0.335620 0.376547
					CHANNELS 3 Xrotation Yrotation Zrotation
					JOINT mixamorig:RightToe_End
					{
						OFFSET -0.078935 -0.008056 0.196268
						CHANNELS 3 Xrotation Yrotation Zrotation
						End Site
						{
							OFFSET -0.078935 -0.008056 0.196268
						}
					}
				}
			}
		}
	}
}
MOTION
Frames: 4
Frame Time: 0.033333
0.002959 0.485538 0.022619 -95.022999 1.348262 -2.643497 2.956859 -0.816034 -0.338915 3.189997 -0.579904 0.392429 3.195715 -0.542838 0.376708 -1.216860 -1.725827 8.446269 -0.918607 5.098705 -6.895213 0.000000 0.000000 -0.000000 1.085465 -13.360071 -4.458429 -18.925592 -21.978908 -12.821468 0.000036 -123.613474 0.000027 4.017530 -14.951655 1.373099 0.699755 -6.020113 19.223933 19.074656 26.512435 -1.026399 3.271075 -0.981161 3.963633 -0.000000 0.000000 -0.000001 0.460240 4.491407 -23.662359 2.316200 4.665553 -52.785071 1.524976 3.943255 -42.272611 0.000001 0.000000 0.000001 2.486446 8.732180 -25.419659 3.183148 5.209272 -62.832003 1.786109 4.212029 -45.943957 0.000002 0.000002 -0.000003 3.090037 8.505109 -34.940365 2.632812 4.889055 -56.585276 1.888423 4.308430 -47.321371 0.000001 0.000002 -0.000003 3.603250 12.761747 -45.581305 1.989423 4.399093 -48.651485 0.930049 3.169113 -32.703858 0.000000 0.000000 0.000000 -0.402529 13.039014 21.882304 -29.287052 52.464008 15.599355 0.000057 113.260164 -0.000037 10.533720 8.192668 -2.668617 -13.495571 -11.552063 -5.371147 13.666547 -20.582707 -6.820315 3.162467 -4.141688 -22.215028 0.000000 -0.000005 -0.000000 0.246027 -3.262791 18.902291 0.589429 -2.269671 29.112657 0.172161 -1.255794 15.610696 0.000000 0.000002 -0.000001 -0.702551 -1.215810 21.259787 0.924243 -2.786639 36.691858 0.557992 -2.212352 28.309439 -0.000001 0.000001 -0.000001 -0.941556 -2.664837 38.529227 0.358942 -1.794610 22.620062 0.313708 -1.682015 21.129351 0.000001 0.000005 0.000001 -2.260413 -1.124663 39.408125 0.612385 -2.310407 29.687605 0.130082 -1.094184 13.559623 -0.000002 -0.000002 -0.000001 -43.779067 4.477166 12.684185 87.266834 -9.515809 2.376974 45.502116 -3.401118 -4.549671 -1.217115 -0.000004 0.000010 0.000000 -0.000005 -0.000001 -41.997699 -2.537206 -2.129603 88.118381 -1.781189 0.466605 46.060491 -0.445576 -0.976602 -1.699884 -0.000003 -0.000001 0.000000 -0.000001 -0.000000 
0.003736 0.485812 0.030228 -94.950209 1.507655 -2.596197 2.940941 -0.790023 -0.362058 3.132507 -0.552850 0.371033 3.138020 -0.515822 0.355705 -0.649582 -1.720402 8.392725 0.367633 4.906257 -6.574921 0.000000 -0.000000 0.000000 1.039862 -14.373117 -4.926922 -18.127636 -21.685497 -13.277505 0.000002 -123.249329 -0.000005 5.650037 -16.426267 -0.193961 0.788313 -5.589505 18.638871 18.916557 26.433498 -0.239122 3.051830 -1.585949 4.859386 -0.000002 0.000002 -0.000002 0.459650 4.489394 -23.599019 2.276093 4.634884 -52.289924 1.502057 3.917980 -41.938389 -0.000000 0.000000 0.000000 2.442547 8.656715 -25.328133 3.124400 5.178833 -62.182896 1.759763 4.186397 -45.583979 -0.000001 0.000002 -0.000001 3.032185 8.444163 -34.733148 2.584508 4.856973 -56.016649 1.858773 4.280923 -46.925148 -0.000000 0.000000 -0.000002 3.509221 12.635138 -45.239727 1.956406 4.369913 -48.219643 0.919686 3.152934 -32.515812 -0.000000 -0.000000 0.000002 -0.591438 14.050551 22.090790 -27.402325 51.141509 16.370270 0.000038 114.472987 -0.000016 11.601147 7.364968 -3.467719 -13.149294 -11.809737 -5.119154 13.611408 -20.522941 -7.447233 3.127800 -3.383367 -22.791151 0.000001 -0.000002 -0.000001 0.244826 -3.262521 18.775060 0.579230 -2.251228 28.853714 0.170994 -1.251637 15.557629 -0.000001 0.000003 -0.000001 -0.680308 -1.250566 21.096199 0.906104 -2.762189 36.317246 0.549693 -2.196854 28.093176 -0.000000 0.000003 -0.000003 -0.907968 -2.671906 38.133896 0.353480 -1.781453 22.444963 0.310158 -1.672755 21.007375 -0.000001 0.000001 0.000002 -2.192049 -1.153963 39.029333 0.601634 -2.291473 29.419920 0.129666 -1.092464 13.537806 0.000001 0.000000 0.000002 -43.870165 4.320866 12.607630 87.351761 -9.159248 2.369321 46.072566 -3.366144 -4.408347 -0.932861 0.000002 0.000008 0.000001 -0.000003 0.000001 -42.159985 -2.566529 -2.369933 88.430165 -1.829400 0.485698 46.121317 -0.385999 -0.836760 -1.526499 0.000005 0.000002 0.000000 0.000001 -0.000000 
0.004310 0.482039 0.038738 -94.709746 1.523720 -2.492029 2.971343 -0.710813 -0.393629 3.163025 -0.466504 0.360911 3.167834 -0.429341 0.345691 1.002705 -1.524140 7.982860 2.315705 4.781040 -6.003288 -0.000001 -0.000000 -0.000000 0.854166 -16.204737 -5.950998 -13.667204 -20.625594 -13.828225 -0.000005 -121.263233 -0.000022 10.284698 -17.142062 3.436519 1.036498 -4.359890 17.019710 18.159685 26.234781 1.982148 2.444054 -3.321539 7.431165 -0.000003 -0.000001 0.000001 0.457897 4.483571 -23.420404 2.165051 4.547195 -50.903149 1.438658 3.846387 -41.001755 0.000001 -0.000000 -0.000000 2.321547 8.446545 -25.070981 2.961734 5.090042 -60.365410 1.686765 4.113825 -44.575485 0.000002 -0.000000 -0.000001 2.873108 8.273013 -34.152390 2.450966 4.764557 -54.424320 1.776665 4.202877 -45.815055 0.000001 -0.000002 0.000002 3.254438 12.279577 -44.283917 1.865091 4.286817 -47.009982 0.890863 3.107336 -31.988170 -0.000000 0.000001 0.000000 -0.986067 16.517358 22.025531 -22.211960 47.556852 17.350327 -0.000023 113.263559 0.000038 13.262731 7.438454 -6.201908 -12.187156 -12.523083 -4.408689 13.462751 -20.354515 -9.184983 2.896357 -1.207386 -24.394453 -0.000002 0.000000 0.000000 0.241315 -3.261550 18.419871 0.551116 -2.199528 28.130110 0.167787 -1.240045 15.409971 -0.000000 -0.000000 0.000000 -0.619784 -1.347328 20.639377 0.856274 -2.693121 35.269932 0.526750 -2.153387 27.488943 0.000000 -0.000001 0.000004 -0.816824 -2.693192 37.028347 0.338440 -1.744585 21.955887 0.300313 -1.646865 20.666914 -0.000000 -0.000000 0.000001 -2.005880 -1.238690 37.970162 0.572072 -2.238281 28.671758 0.128529 -1.087689 13.477594 -0.000000 -0.000001 0.000001 -44.387733 4.254143 12.419181 87.728254 -9.077316 2.260439 46.127922 -3.169274 -3.990935 -0.611678 0.000001 -0.000003 -0.000000 -0.000003 -0.000001 -42.931864 -2.423726 -2.579499 89.145273 -1.994800 0.482241 45.376109 -0.366661 -0.805810 -1.222259 -0.000000 0.000001 0.000000 -0.000003 0.000000 
0.004883 0.477596 0.046779 -94.353702 1.379449 -2.342040 3.066726 -0.632862 -0.409875 3.327046 -0.396940 0.392641 3.331325 -0.357441 0.377584 3.799320 -1.227261 7.378389 5.811189 4.664131 -5.113823 -0.000000 -0.000000 -0.000000 0.449968 -18.545838 -7.648316 -5.758448 -18.963095 -15.205234 -0.000028 -116.853772 -0.000033 12.621399 -15.488869 14.066081 1.423271 -2.396532 14.575967 16.981013 25.813059 5.355958 1.780898 -6.305480 11.369504 -0.000004 0.000000 0.000001 0.455029 4.474255 -23.143560 1.998755 4.407246 -48.773035 1.343483 3.734329 -39.562023 0.000000 -0.000000 0.000000 2.140904 8.125278 -24.674685 2.717635 4.943750 -57.574670 1.577095 3.999760 -43.025489 -0.000001 0.000000 0.000000 2.636766 8.007669 -33.259992 2.250983 4.615481 -51.978908 1.653469 4.079812 -44.109266 0.000004 0.000000 0.000001 2.887015 11.728435 -42.818490 1.728302 4.155440 -45.151440 0.847346 3.036633 -31.175825 0.000002 -0.000000 -0.000000 -1.689563 20.348940 22.586350 -15.162404 42.118580 19.454636 0.000036 108.120884 -0.000004 13.934650 9.160075 -8.412648 -10.722714 -13.600643 -3.298408 13.249592 -20.092154 -11.817604 2.815220 2.302436 -26.906101 -0.000001 -0.000003 -0.000009 0.235588 -3.259796 17.876579 0.509347 -2.119578 27.021550 0.162955 -1.222399 15.185145 -0.000001 0.000000 -0.000002 -0.531413 -1.495353 19.940322 0.782340 -2.585574 33.664763 0.492544 -2.086302 26.563524 0.000000 0.000000 -0.000000 -0.684280 -2.730766 35.333224 0.316013 -1.687936 21.207143 0.285510 -1.607141 20.146251 -0.000000 -0.000001 0.000003 -1.733613 -1.377679 36.346363 0.528111 -2.156030 27.525527 0.126809 -1.080527 13.386939 -0.000000 -0.000000 0.000004 -45.021465 4.380168 12.140695 88.167552 -9.349495 2.111654 46.084584 -2.937801 -3.511866 -0.359811 -0.000001 0.000001 0.000000 -0.000007 -0.000001 -43.922966 -2.219417 -2.767058 89.925997 -2.033555 0.476694 44.512175 -0.398691 -0.899955 -0.972502 0.000007 0.000003 0.000000 0.000001 -0.000001 
